<svg xmlns="http://www.w3.org/2000/svg" viewBox="0 0 800 200" width="800" height="200">
  <!-- Background -->
  <rect width="800" height="200" fill="#1a1a2e"/>

  <!-- Three paper airplanes - tight spacing -->
  <g transform="translate(175, 100)">

    <!-- First plane -->
    <g opacity="0.35" transform="translate(-50, 0) scale(0.5)">
      <path d="M 0 0 L -140 -53 L -70 0 Z" fill="#00d4ff"/>
      <path d="M 0 0 L -140 53 L -70 0 Z" fill="#5de4ff"/>
      <line x1="0" y1="0" x2="-140" y2="0" stroke="#1a1a2e" stroke-width="6"/>
    </g>

    <!-- Second plane -->
    <g opacity="0.65" transform="translate(0, 0) scale(0.5)">
      <path d="M 0 0 L -140 -53 L -70 0 Z" fill="#00d4ff"/>
      <path d="M 0 0 L -140 53 L -70 0 Z" fill="#5de4ff"/>
      <line x1="0" y1="0" x2="-140" y2="0" stroke="#1a1a2e" stroke-width="6"/>
    </g>

    <!-- Third plane -->
    <g transform="translate(50, 0) scale(0.5)">
      <path d="M 0 0 L -140 -53 L -70 0 Z" fill="#00d4ff"/>
      <path d="M 0 0 L -140 53 L -70 0 Z" fill="#5de4ff"/>
      <line x1="0" y1="0" x2="-140" y2="0" stroke="#1a1a2e" stroke-width="6"/>
    </g>

  </g>

  <!-- Text: DISPATCH -->
  <text x="280" y="110"
        font-size="72"
        font-family="Arial, sans-serif"
        font-weight="bold"
        fill="#ffffff"
        text-anchor="start"
        letter-spacing="2"
        dominant-baseline="middle">DISPATCH</text>
</svg>
