<svg xmlns="http://www.w3.org/2000/svg" viewBox="0 0 64 64" width="64" height="64">
  <!-- Background -->
  <rect width="64" height="64" fill="#1a1a2e"/>

  <!-- Three paper airplanes - centered, tight spacing, optimized for very small size -->
  <g transform="translate(38, 32)">

    <!-- First plane -->
    <g opacity="0.35" transform="translate(-12.5, 0) scale(0.1)">
      <path d="M 0 0 L -140 -53 L -70 0 Z" fill="#00d4ff"/>
      <path d="M 0 0 L -140 53 L -70 0 Z" fill="#5de4ff"/>
      <line x1="0" y1="0" x2="-140" y2="0" stroke="#1a1a2e" stroke-width="6"/>
    </g>

    <!-- Second plane -->
    <g opacity="0.65" transform="translate(0, 0) scale(0.1)">
      <path d="M 0 0 L -140 -53 L -70 0 Z" fill="#00d4ff"/>
      <path d="M 0 0 L -140 53 L -70 0 Z" fill="#5de4ff"/>
      <line x1="0" y1="0" x2="-140" y2="0" stroke="#1a1a2e" stroke-width="6"/>
    </g>

    <!-- Third plane -->
    <g transform="translate(12.5, 0) scale(0.1)">
      <path d="M 0 0 L -140 -53 L -70 0 Z" fill="#00d4ff"/>
      <path d="M 0 0 L -140 53 L -70 0 Z" fill="#5de4ff"/>
      <line x1="0" y1="0" x2="-140" y2="0" stroke="#1a1a2e" stroke-width="6"/>
    </g>

  </g>
</svg>
