<svg xmlns="http://www.w3.org/2000/svg" viewBox="0 0 1600 400" width="1600" height="400">
  <!-- Background with gradient -->
  <defs>
    <linearGradient id="bgGradient" x1="0%" y1="0%" x2="100%" y2="0%">
      <stop offset="0%" style="stop-color:#1a1a2e;stop-opacity:1" />
      <stop offset="100%" style="stop-color:#2a2a4e;stop-opacity:1" />
    </linearGradient>
  </defs>
  <rect width="1600" height="400" fill="url(#bgGradient)"/>

  <!-- Three paper airplanes - left side -->
  <g transform="translate(280, 200)">

    <!-- First plane -->
    <g opacity="0.35" transform="translate(-100, 0) scale(0.7)">
      <path d="M 0 0 L -140 -53 L -70 0 Z" fill="#00d4ff"/>
      <path d="M 0 0 L -140 53 L -70 0 Z" fill="#5de4ff"/>
      <line x1="0" y1="0" x2="-140" y2="0" stroke="#1a1a2e" stroke-width="6"/>
    </g>

    <!-- Second plane -->
    <g opacity="0.65" transform="translate(0, 0) scale(0.7)">
      <path d="M 0 0 L -140 -53 L -70 0 Z" fill="#00d4ff"/>
      <path d="M 0 0 L -140 53 L -70 0 Z" fill="#5de4ff"/>
      <line x1="0" y1="0" x2="-140" y2="0" stroke="#1a1a2e" stroke-width="6"/>
    </g>

    <!-- Third plane -->
    <g transform="translate(100, 0) scale(0.7)">
      <path d="M 0 0 L -140 -53 L -70 0 Z" fill="#00d4ff"/>
      <path d="M 0 0 L -140 53 L -70 0 Z" fill="#5de4ff"/>
      <line x1="0" y1="0" x2="-140" y2="0" stroke="#1a1a2e" stroke-width="6"/>
    </g>

  </g>

  <!-- Text: DISPATCH -->
  <text x="500" y="175"
        font-size="90"
        font-family="Arial, sans-serif"
        font-weight="bold"
        fill="#ffffff"
        text-anchor="start"
        letter-spacing="3"
        dominant-baseline="middle">DISPATCH</text>

  <!-- Tagline -->
  <text x="500" y="250"
        font-size="28"
        font-family="Arial, sans-serif"
        fill="#00d4ff"
        text-anchor="start"
        letter-spacing="4"
        dominant-baseline="middle">FAST .NET MESSAGING FRAMEWORK</text>
</svg>
